<svg width="131" height="45" viewBox="0 0 131 45" fill="none" xmlns="http://www.w3.org/2000/svg">
<g clip-path="url(#clip0_39_1624)">
<path d="M127.405 28.8033L130.631 28.4842V3.81663L126.022 1.4895L119.055 2.1411V26.8087L122.703 28.6172L118.752 28.9496V37.5134L123.296 39.8938L131 39.2821V30.5852L127.405 28.8033ZM119.503 26.29V2.55333L125.548 1.99482V25.7315L119.503 26.29ZM125.916 36.4895L119.134 36.9948V29.3618L125.916 28.8033V36.4895Z" fill="black"/>
<path d="M125.93 28.8032V36.4894L119.147 36.9947V29.3617L125.93 28.8032Z" fill="#FFD800"/>
<path d="M125.561 1.99463V25.7313L119.516 26.2898V2.55314L125.561 1.99463Z" fill="#FFD800"/>
<path d="M111.298 27.5931L104.713 28.1516L115.499 8.75V2.32713L110.982 0L89.8178 1.9016V9.53457L94.4272 11.8617L99.4581 11.4495L88.8037 30.4388V37.367L93.4131 39.6941L115.894 37.7394V29.9202L111.298 27.5931ZM110.837 35L89.2647 36.9016V30.5851L101.894 7.97872L90.2787 9.00266V2.35372L110.468 0.505319V6.32979L97.6538 29.2553L110.824 28.0984L110.837 35Z" fill="black"/>
<path d="M110.837 28.112V35.0003L89.2646 36.9019V30.5721L101.894 8.00562L90.2787 9.02955V2.32742L110.468 0.505615V6.33008L97.6538 29.2689L110.837 28.112Z" fill="#FFD800"/>
<path d="M79.5321 0.691406L71.5117 1.43609V36.8084L76.1211 39.0957L84.1416 38.3909V3.01853L79.5321 0.691406ZM79.0185 35.6515L71.92 36.3031V1.86162L79.0185 1.21002V35.6515Z" fill="black"/>
<path d="M79.0712 1.20996V35.6514L71.9727 36.303V1.86156L79.0712 1.20996Z" fill="#FFD800"/>
<path d="M60.7918 0.598389L53.0085 1.32977V23.3112C53.0565 24.5459 52.8687 25.7784 52.4554 26.9415C52.1631 27.7569 51.5875 28.4374 50.8355 28.8564C50.8355 28.5106 50.7169 28.1383 50.6511 27.7393C50.5852 27.3404 50.6511 26.8351 50.6511 26.3431V3.73669L46.0417 1.40956L37.9686 2.15424V26.0904C37.9258 27.8922 38.1749 29.6889 38.7061 31.4096C39.1204 32.7594 39.8472 33.9902 40.8264 35C41.9348 36.0165 43.1754 36.8755 44.514 37.5532C45.7887 38.2083 47.1092 38.7683 48.4649 39.2287C49.8235 39.6846 51.2477 39.9093 52.6792 39.8936H53.3641C53.5746 39.9054 53.7857 39.9054 53.9962 39.8936C57.1763 39.6973 60.1584 38.268 62.3195 35.9042C64.4765 33.307 65.5778 29.9806 65.4013 26.5957V2.92552L60.7918 0.598389ZM60.3309 24.2021C60.5153 27.5088 59.4624 30.7648 57.3809 33.3244C55.2994 35.5865 52.416 36.9251 49.3604 37.0479C49.1324 37.0622 48.9037 37.0622 48.6756 37.0479H47.9776C46.6589 37.1436 45.3354 36.9468 44.1001 36.4713C42.8647 35.9958 41.7473 35.253 40.8264 34.2952C39.167 32.4335 38.3373 29.7207 38.3373 26.1569V2.65956L45.4885 2.00796V24.0159C45.3788 25.5099 45.6796 27.0054 46.3577 28.3377C46.639 28.7769 47.0317 29.1319 47.4949 29.3657C47.9582 29.5996 48.475 29.7038 48.9917 29.6675H49.4526C50.0333 29.631 50.5988 29.4655 51.1088 29.1827C51.6187 28.9 52.0605 28.507 52.4027 28.0319C53.2273 26.5955 53.5993 24.9397 53.4694 23.2846V1.71541L60.3309 1.11701V24.2021Z" fill="black"/>
<path d="M60.3305 1.11719V24.2023C60.5149 27.509 59.462 30.765 57.3804 33.3246C55.299 35.5867 52.4156 36.9253 49.36 37.048C49.132 37.0624 48.9033 37.0624 48.6752 37.048H47.9772C46.6585 37.1438 45.335 36.947 44.0997 36.4715C42.8643 35.996 41.7469 35.2532 40.826 34.2954C39.1666 32.4337 38.3369 29.7209 38.3369 26.1571V2.65974L45.4881 2.00814V24.0161C45.3784 25.51 45.6792 27.0056 46.3573 28.3379C46.6386 28.7771 47.0313 29.132 47.4945 29.3659C47.9578 29.5998 48.4746 29.704 48.9913 29.6677H49.4522C50.0329 29.6312 50.5984 29.4657 51.1084 29.1829C51.6183 28.9002 52.0601 28.5072 52.4023 28.0321C53.2268 26.5957 53.5989 24.9398 53.469 23.2847V1.71559L60.3305 1.11719Z" fill="#FFD800"/>
<path d="M19.4522 10.2395C19.0145 9.51927 18.3944 8.93002 17.6559 8.53262C16.9174 8.13522 16.0872 7.94405 15.251 7.97887H14.8823H14.4872C13.2721 8.0854 12.1141 8.54754 11.1552 9.30865C10.0522 10.2755 9.23623 11.5321 8.79783 12.939C8.17865 15.0387 7.89849 17.2254 7.96813 19.415C7.96813 23.2271 8.47736 26.0019 9.49583 27.7395C9.92227 28.5303 10.5555 29.1878 11.3264 29.6404C12.0974 30.0929 12.9766 30.3231 13.8682 30.306H14.1974C14.3023 30.2911 14.4087 30.2911 14.5135 30.306C15.4743 30.2217 16.3991 29.8966 17.204 29.3602C18.0089 28.8238 18.6685 28.0931 19.1229 27.2342C20.3258 25.3459 20.9272 22.3849 20.9272 18.3512C20.9272 14.4549 20.4399 11.7954 19.4522 10.2395ZM18.7542 26.7156C18.3354 27.5327 17.73 28.2375 16.988 28.7717C16.246 29.3058 15.3888 29.654 14.4872 29.7874C13.3566 27.2479 12.8592 24.4674 13.0385 21.689C12.9097 18.8958 13.3582 16.1061 14.3555 13.4975C14.6709 12.6659 15.2316 11.9522 15.9618 11.4528C16.6919 10.9533 17.5563 10.6923 18.4381 10.7049H18.8069C18.9426 10.6899 19.0795 10.6899 19.2151 10.7049C20.1942 13.0756 20.6222 15.6412 20.4663 18.2049C20.4663 22.0259 19.8956 24.8627 18.7542 26.7156ZM19.4522 10.2395C19.0145 9.51927 18.3944 8.93002 17.6559 8.53262C16.9174 8.13522 16.0872 7.94405 15.251 7.97887H14.8823H14.4872C13.2721 8.0854 12.1141 8.54754 11.1552 9.30865C10.0522 10.2755 9.23623 11.5321 8.79783 12.939C8.17865 15.0387 7.89849 17.2254 7.96813 19.415C7.96813 23.2271 8.47736 26.0019 9.49583 27.7395C9.92227 28.5303 10.5555 29.1878 11.3264 29.6404C12.0974 30.0929 12.9766 30.3231 13.8682 30.306H14.1974C14.3023 30.2911 14.4087 30.2911 14.5135 30.306C15.4743 30.2217 16.3991 29.8966 17.204 29.3602C18.0089 28.8238 18.6685 28.0931 19.1229 27.2342C20.3258 25.3459 20.9272 22.3849 20.9272 18.3512C20.9272 14.4549 20.4399 11.7954 19.4522 10.2395ZM18.7542 26.7156C18.3354 27.5327 17.73 28.2375 16.988 28.7717C16.246 29.3058 15.3888 29.654 14.4872 29.7874C13.3566 27.2479 12.8592 24.4674 13.0385 21.689C12.9097 18.8958 13.3582 16.1061 14.3555 13.4975C14.6709 12.6659 15.2316 11.9522 15.9618 11.4528C16.6919 10.9533 17.5563 10.6923 18.4381 10.7049H18.8069C18.9426 10.6899 19.0795 10.6899 19.2151 10.7049C20.1942 13.0756 20.6222 15.6412 20.4663 18.2049C20.4663 22.0259 19.8956 24.8627 18.7542 26.7156ZM30.607 35.5055L28.4867 35.3725C30.2943 33.2933 31.6054 30.823 32.3191 28.1517C33.0703 25.4552 33.4557 22.6683 33.4649 19.8672C33.5494 16.1755 32.7259 12.5203 31.068 9.22887C29.4938 6.13531 26.8857 3.70445 23.706 2.36717C22.231 1.75546 20.914 1.23685 19.7551 0.837911C18.4901 0.373065 17.1499 0.152042 15.8042 0.186316H15.1588H14.474C12.2124 0.364924 10.0284 1.09998 8.113 2.32727C6.30244 3.46602 4.76062 4.99106 3.59576 6.79536C2.36768 8.69731 1.44743 10.7846 0.869606 12.9789C0.286768 15.2772 -0.00529332 17.6409 0.000399552 20.0134C-0.0962097 23.7668 0.660688 27.4926 2.21293 30.9044C3.71183 33.9454 6.24603 36.339 9.35096 37.6464C10.7148 38.268 12.1183 38.7967 13.5521 39.2289C14.803 39.6367 16.1096 39.8431 17.424 39.8406H17.6479L21.2038 41.7422C22.5077 42.4646 23.8636 43.087 25.2601 43.6039C26.9238 44.2059 28.6326 44.6728 30.37 45.0001L35.256 37.8858L30.607 35.5055ZM25.4971 42.1544C23.2679 41.8079 21.1047 41.1172 19.0834 40.1065C17.3796 39.2617 15.7721 38.2317 14.2896 37.0347C14.0442 37.055 13.7975 37.055 13.5521 37.0347H12.9068C10.9511 37.0789 9.01622 36.6214 7.2833 35.7049C5.71247 34.7995 4.38357 33.5216 3.41138 31.9815C2.36735 30.3247 1.60195 28.5049 1.14617 26.5959C0.676103 24.4433 0.446393 22.2443 0.461343 20.04C0.446609 17.7072 0.7344 15.3825 1.31738 13.1251C1.87429 10.9933 2.76338 8.96442 3.95134 7.11451C5.08538 5.35535 6.58109 3.86324 8.33688 2.73951C10.1932 1.56552 12.3034 0.862868 14.4872 0.691635H15.1325H15.8042C17.7483 0.637581 19.6728 1.0959 21.3882 2.02142C22.9812 2.92543 24.3362 4.20233 25.3391 5.74483C26.4205 7.40228 27.2051 9.23871 27.657 11.1704C28.1872 13.2508 28.4484 15.3918 28.434 17.54C28.4329 19.5919 28.2166 21.6379 27.7887 23.6438C27.4035 25.6648 26.7385 27.6211 25.8132 29.4549C24.9131 31.2341 23.6733 32.8159 22.1652 34.1092C23.0985 34.6661 24.1113 35.0743 25.1679 35.3193C26.6808 35.6752 28.2247 35.8801 29.7773 35.931L25.4971 42.1544ZM15.251 7.97887H14.8823H14.4872C13.2721 8.0854 12.1141 8.54754 11.1552 9.30865C10.0522 10.2755 9.23623 11.5321 8.79783 12.939C8.17865 15.0387 7.89849 17.2254 7.96813 19.415C7.96813 23.2271 8.47736 26.0019 9.49583 27.7395C9.92227 28.5303 10.5555 29.1878 11.3264 29.6404C12.0974 30.0929 12.9766 30.3231 13.8682 30.306H14.1974C14.3023 30.2911 14.4087 30.2911 14.5135 30.306C15.4743 30.2217 16.3991 29.8966 17.204 29.3602C18.0089 28.8238 18.6685 28.0931 19.1229 27.2342C20.3258 25.3459 20.9272 22.3849 20.9272 18.3512C20.9272 14.5613 20.4399 11.9017 19.4522 10.3725C19.0314 9.62755 18.4185 9.01164 17.6788 8.59018C16.9391 8.16873 16.1001 7.95748 15.251 7.97887ZM18.7542 26.7821C18.3275 27.5868 17.7186 28.2784 16.9771 28.8007C16.2356 29.3229 15.3825 29.661 14.4872 29.7874C13.3566 27.2479 12.8592 24.4674 13.0385 21.689C12.9097 18.8958 13.3582 16.1061 14.3555 13.4975C14.6709 12.6659 15.2316 11.9522 15.9618 11.4528C16.6919 10.9533 17.5563 10.6923 18.4381 10.7049H18.8069C18.9426 10.6899 19.0795 10.6899 19.2151 10.7049C20.1942 13.0756 20.6222 15.6412 20.4663 18.2049C20.4663 22.0259 19.8956 24.8627 18.7542 26.7156V26.7821Z" fill="black"/>
<path d="M25.1675 35.3189C24.1109 35.074 23.098 34.6658 22.1647 34.1088C23.6729 32.8155 24.9127 31.2337 25.8128 29.4546C26.7381 27.6207 27.4031 25.6645 27.7883 23.6434C28.2162 21.6375 28.4325 19.5916 28.4336 17.5397C28.448 15.3915 28.1868 13.2505 27.6566 11.17C27.2116 9.22998 26.4315 7.38436 25.3518 5.71788C24.3489 4.17538 22.994 2.89848 21.4009 1.99447C19.6856 1.06894 17.761 0.61063 15.8169 0.664684H15.1716H14.5263C12.3266 0.837609 10.2019 1.54968 8.33646 2.73915C6.58067 3.86288 5.08496 5.355 3.95091 7.11415C2.76295 8.96406 1.87387 10.9929 1.31695 13.1248C0.73181 15.373 0.43961 17.6886 0.447748 20.0131C0.43515 22.2267 0.669289 24.4348 1.14575 26.5955C1.59463 28.5277 2.36025 30.3705 3.41095 32.0477C4.38314 33.5877 5.71205 34.8657 7.28288 35.7711C9.0158 36.6875 10.9507 37.145 12.9064 37.1009H13.5912C13.8366 37.1212 14.0833 37.1212 14.3287 37.1009C15.8112 38.2978 17.4187 39.3279 19.1225 40.1727C21.1438 41.1833 23.307 41.874 25.5362 42.2205L29.7769 35.904C28.2251 35.8619 26.6813 35.6659 25.1675 35.3189ZM19.1225 27.1275C18.6657 27.9899 18.002 28.7229 17.1921 29.2596C16.3823 29.7962 15.4522 30.1193 14.4868 30.1993C14.3819 30.1843 14.2755 30.1843 14.1707 30.1993H13.8414C12.9498 30.2164 12.0706 29.9862 11.2997 29.5336C10.5287 29.0811 9.89551 28.4236 9.46906 27.6328C8.45938 25.8597 7.95014 23.0849 7.94136 19.3083C7.87173 17.1186 8.15188 14.9319 8.77106 12.8322C9.23402 11.4608 10.0581 10.2426 11.1548 9.3083C12.1137 8.54718 13.2716 8.08504 14.4868 7.97851H14.8555H15.2243C16.0648 7.93887 16.9004 8.12773 17.644 8.52536C18.3876 8.923 19.0119 9.51484 19.4518 10.2392C20.4395 11.795 20.9268 14.4546 20.9268 18.2179C20.9268 22.2693 20.3254 25.2392 19.1225 27.1275Z" fill="#FFD800"/>
</g>
<defs>
<clipPath id="clip0_39_1624">
<rect width="131" height="45" fill="white"/>
</clipPath>
</defs>
</svg>
