<svg width="115" height="40" viewBox="0 0 115 40" fill="none" xmlns="http://www.w3.org/2000/svg">
<g clip-path="url(#clip0_18_21)">
<path d="M111.844 25.0417L114.676 24.7642V3.31802L110.63 1.2948L104.514 1.8613V23.3075L107.716 24.8798L104.248 25.1688V32.6143L108.237 34.6838L115 34.1519V26.5909L111.844 25.0417ZM104.907 22.8566V2.2197L110.214 1.73413V22.371L104.907 22.8566ZM110.537 31.7241L104.583 32.1634V25.5272L110.537 25.0417V31.7241Z" fill="black"/>
<path d="M110.549 25.0417V31.7242L104.595 32.1635V25.5273L110.549 25.0417Z" fill="#FFD800"/>
<path d="M110.226 1.73413V22.371L104.919 22.8566V2.2197L110.226 1.73413Z" fill="#FFD800"/>
<path d="M97.7047 23.9896L91.924 24.4752L101.393 7.60732V2.02322L97.4272 0L78.8482 1.65326V8.28943L82.8947 10.3127L87.3111 9.95426L77.958 26.4638V32.4872L82.0045 34.5104L101.74 32.8109V26.0129L97.7047 23.9896ZM97.3 30.4293L78.3627 32.0825V26.5909L89.4499 6.93676L79.2529 7.82698V2.04635L96.9763 0.439328V5.50317L85.7272 25.4348L97.2885 24.429L97.3 30.4293Z" fill="black"/>
<path d="M97.2997 24.4405V30.4293L78.3623 32.0825V26.5794L89.4496 6.95989L79.2525 7.85011V2.02323L96.976 0.439331V5.50317L85.7268 25.4464L97.2997 24.4405Z" fill="#FFD800"/>
<path d="M69.8182 0.601196L62.7773 1.24863V32.0016L66.8238 33.9902L73.8646 33.3774V2.62442L69.8182 0.601196ZM69.3673 30.9958L63.1357 31.5623V1.61859L69.3673 1.05209V30.9958Z" fill="black"/>
<path d="M69.4141 1.052V30.9957L63.1826 31.5622V1.6185L69.4141 1.052Z" fill="#FFD800"/>
<path d="M53.367 0.520264L46.5343 1.15613V20.2669C46.5764 21.3404 46.4116 22.412 46.0487 23.4231C45.7921 24.1321 45.2868 24.7237 44.6266 25.088C44.6266 24.7874 44.5226 24.4637 44.4648 24.1168C44.407 23.77 44.4648 23.3307 44.4648 22.9029V3.24872L40.4183 1.2255L33.3313 1.87293V22.6832C33.2937 24.2497 33.5124 25.8118 33.9787 27.3077C34.3424 28.4813 34.9805 29.5514 35.8401 30.4293C36.8131 31.3131 37.9022 32.0599 39.0772 32.649C40.1962 33.2187 41.3555 33.7055 42.5456 34.1058C43.7383 34.5021 44.9885 34.6975 46.2452 34.6838H46.8464C47.0312 34.6941 47.2165 34.6941 47.4014 34.6838C50.1931 34.5132 52.8109 33.2706 54.7081 31.2154C56.6016 28.9574 57.5684 26.0654 57.4134 23.1226V2.54349L53.367 0.520264ZM52.9623 21.0415C53.1242 23.9164 52.1999 26.7472 50.3726 28.9726C48.5453 30.9392 46.0142 32.103 43.3318 32.2097C43.1316 32.2222 42.9308 32.2222 42.7306 32.2097H42.1178C40.9602 32.293 39.7984 32.1219 38.7139 31.7085C37.6294 31.295 36.6485 30.6493 35.8401 29.8165C34.3834 28.198 33.655 25.8395 33.655 22.741V2.31226L39.9328 1.74576V20.8797C39.8365 22.1785 40.1005 23.4787 40.6958 24.6371C40.9427 25.0189 41.2874 25.3275 41.6941 25.5308C42.1008 25.7341 42.5545 25.8248 43.0081 25.7932H43.4127C43.9224 25.7615 44.4189 25.6175 44.8666 25.3717C45.3142 25.1259 45.7021 24.7843 46.0024 24.3712C46.7263 23.1223 47.0529 21.6828 46.9389 20.2438V1.49141L52.9623 0.971153V21.0415Z" fill="black"/>
<path d="M52.9626 0.971191V21.0416C53.1245 23.9165 52.2002 26.7472 50.3729 28.9726C48.5456 30.9393 46.0144 32.103 43.3321 32.2098C43.1319 32.2223 42.9311 32.2223 42.7309 32.2098H42.1181C40.9605 32.293 39.7987 32.1219 38.7142 31.7085C37.6297 31.2951 36.6488 30.6493 35.8404 29.8166C34.3836 28.198 33.6553 25.8395 33.6553 22.7411V2.3123L39.933 1.7458V20.8797C39.8367 22.1785 40.1008 23.4787 40.6961 24.6371C40.943 25.0189 41.2877 25.3275 41.6944 25.5309C42.101 25.7342 42.5548 25.8248 43.0083 25.7932H43.413C43.9227 25.7615 44.4192 25.6176 44.8668 25.3718C45.3145 25.1259 45.7024 24.7843 46.0027 24.3712C46.7266 23.1224 47.0532 21.6828 46.9392 20.2438V1.49145L52.9626 0.971191Z" fill="#FFD800"/>
<path d="M17.0764 8.90226C16.6922 8.27608 16.1478 7.76379 15.4995 7.41828C14.8512 7.07278 14.1224 6.90658 13.3883 6.93685H13.0646H12.7178C11.6511 7.02946 10.6345 7.43125 9.79277 8.09297C8.8245 8.93356 8.10816 10.0261 7.7233 11.2492C7.17975 13.0747 6.93381 14.9758 6.99494 16.8795C6.99494 20.1938 7.44198 22.6062 8.33605 24.1169C8.71041 24.8044 9.26627 25.3761 9.94308 25.7695C10.6199 26.163 11.3917 26.3631 12.1744 26.3482H12.4634C12.5555 26.3353 12.6489 26.3353 12.7409 26.3482C13.5843 26.275 14.3962 25.9923 15.1028 25.526C15.8093 25.0596 16.3884 24.4243 16.7873 23.6776C17.8433 22.0359 18.3712 19.4616 18.3712 15.9546C18.3712 12.5672 17.9435 10.2549 17.0764 8.90226ZM16.4636 23.2267C16.096 23.9371 15.5645 24.5499 14.9131 25.0143C14.2618 25.4786 13.5093 25.7813 12.7178 25.8973C11.7253 23.6895 11.2886 21.2721 11.446 18.8565C11.333 16.4281 11.7267 14.0027 12.6022 11.7348C12.8791 11.0118 13.3713 10.3913 14.0123 9.95709C14.6532 9.52288 15.412 9.29593 16.1862 9.30691H16.5099C16.629 9.29383 16.7492 9.29383 16.8683 9.30691C17.7278 11.368 18.1035 13.5986 17.9666 15.8275C17.9666 19.1494 17.4656 21.6158 16.4636 23.2267ZM17.0764 8.90226C16.6922 8.27608 16.1478 7.76379 15.4995 7.41828C14.8512 7.07278 14.1224 6.90658 13.3883 6.93685H13.0646H12.7178C11.6511 7.02946 10.6345 7.43125 9.79277 8.09297C8.8245 8.93356 8.10816 10.0261 7.7233 11.2492C7.17975 13.0747 6.93381 14.9758 6.99494 16.8795C6.99494 20.1938 7.44198 22.6062 8.33605 24.1169C8.71041 24.8044 9.26627 25.3761 9.94308 25.7695C10.6199 26.163 11.3917 26.3631 12.1744 26.3482H12.4634C12.5555 26.3353 12.6489 26.3353 12.7409 26.3482C13.5843 26.275 14.3962 25.9923 15.1028 25.526C15.8093 25.0596 16.3884 24.4243 16.7873 23.6776C17.8433 22.0359 18.3712 19.4616 18.3712 15.9546C18.3712 12.5672 17.9435 10.2549 17.0764 8.90226ZM16.4636 23.2267C16.096 23.9371 15.5645 24.5499 14.9131 25.0143C14.2618 25.4786 13.5093 25.7813 12.7178 25.8973C11.7253 23.6895 11.2886 21.2721 11.446 18.8565C11.333 16.4281 11.7267 14.0027 12.6022 11.7348C12.8791 11.0118 13.3713 10.3913 14.0123 9.95709C14.6532 9.52288 15.412 9.29593 16.1862 9.30691H16.5099C16.629 9.29383 16.7492 9.29383 16.8683 9.30691C17.7278 11.368 18.1035 13.5986 17.9666 15.8275C17.9666 19.1494 17.4656 21.6158 16.4636 23.2267ZM26.8688 30.8687L25.0074 30.7531C26.5943 28.9454 27.7453 26.7977 28.3717 24.4753C29.0312 22.1309 29.3696 19.708 29.3776 17.2726C29.4518 14.0631 28.7289 10.8852 27.2734 8.02361C25.8915 5.33405 23.602 3.22063 20.8107 2.05799C19.5158 1.52617 18.3597 1.07528 17.3423 0.728441C16.2318 0.3243 15.0553 0.132141 13.8739 0.161939H13.3074H12.7062C10.7208 0.317222 8.80362 0.956285 7.12212 2.0233C5.5327 3.01334 4.1792 4.33922 3.1566 5.90789C2.07852 7.56147 1.27067 9.3762 0.763417 11.2839C0.251766 13.2821 -0.00462445 15.3371 0.000373116 17.3998C-0.0844366 20.663 0.580016 23.9022 1.94267 26.8685C3.2585 29.5124 5.48318 31.5934 8.20888 32.73C9.40613 33.2705 10.6382 33.7301 11.8969 34.1058C12.995 34.4604 14.142 34.6398 15.2959 34.6377H15.4925L18.614 36.2909C19.7587 36.919 20.949 37.4601 22.1749 37.9095C23.6355 38.4329 25.1355 38.8388 26.6607 39.1234L30.9499 32.9382L26.8688 30.8687ZM22.383 36.6493C20.426 36.3481 18.527 35.7476 16.7527 34.8689C15.2569 34.1344 13.8458 33.2389 12.5444 32.1982C12.3289 32.2159 12.1124 32.2159 11.8969 32.1982H11.3304C9.61356 32.2366 7.91503 31.8389 6.39376 31.0421C5.01479 30.2549 3.84819 29.1439 2.99474 27.8049C2.07823 26.3645 1.40632 24.7824 1.0062 23.1226C0.593548 21.2511 0.391894 19.3393 0.405018 17.4229C0.392084 15.3948 0.644725 13.3736 1.1565 11.4111C1.64539 9.55761 2.42589 7.79369 3.46876 6.18536C4.46429 4.65594 5.77732 3.35868 7.31866 2.3817C8.94823 1.36103 10.8007 0.750139 12.7178 0.601267H13.2843H13.8739C15.5806 0.554272 17.2701 0.952734 18.7759 1.75739C20.1744 2.54335 21.3638 3.6535 22.2443 4.99455C23.1936 6.43555 23.8823 8.03216 24.279 9.71155C24.7445 11.5203 24.9738 13.3817 24.9612 15.2494C24.9602 17.0333 24.7703 18.8121 24.3947 20.556C24.0566 22.3132 23.4728 24.0139 22.6605 25.6083C21.8703 27.1551 20.7819 28.5303 19.458 29.6548C20.2773 30.139 21.1664 30.4938 22.094 30.7068C23.4221 31.0163 24.7774 31.1944 26.1404 31.2386L22.383 36.6493ZM13.3883 6.93685H13.0646H12.7178C11.6511 7.02946 10.6345 7.43125 9.79277 8.09297C8.8245 8.93356 8.10816 10.0261 7.7233 11.2492C7.17975 13.0747 6.93381 14.9758 6.99494 16.8795C6.99494 20.1938 7.44198 22.6062 8.33605 24.1169C8.71041 24.8044 9.26627 25.3761 9.94308 25.7695C10.6199 26.163 11.3917 26.3631 12.1744 26.3482H12.4634C12.5555 26.3353 12.6489 26.3353 12.7409 26.3482C13.5843 26.275 14.3962 25.9923 15.1028 25.526C15.8093 25.0596 16.3884 24.4243 16.7873 23.6776C17.8433 22.0359 18.3712 19.4616 18.3712 15.9546C18.3712 12.6597 17.9435 10.3474 17.0764 9.01788C16.7069 8.37022 16.1689 7.83474 15.5196 7.46833C14.8702 7.10191 14.1337 6.91825 13.3883 6.93685ZM16.4636 23.2845C16.089 23.9841 15.5545 24.5855 14.9036 25.0395C14.2527 25.4935 13.5038 25.7874 12.7178 25.8973C11.7253 23.6895 11.2886 21.2721 11.446 18.8565C11.333 16.4281 11.7267 14.0027 12.6022 11.7348C12.8791 11.0118 13.3713 10.3913 14.0123 9.95709C14.6532 9.52288 15.412 9.29593 16.1862 9.30691H16.5099C16.629 9.29383 16.7492 9.29383 16.8683 9.30691C17.7278 11.368 18.1035 13.5986 17.9666 15.8275C17.9666 19.1494 17.4656 21.6158 16.4636 23.2267V23.2845Z" fill="black"/>
<path d="M22.0935 30.7067C21.166 30.4938 20.2768 30.1389 19.4575 29.6547C20.7815 28.5303 21.8698 27.1551 22.66 25.6082C23.4723 24.0139 24.0561 22.3131 24.3942 20.556C24.7699 18.812 24.9598 17.0332 24.9607 15.2493C24.9734 13.3817 24.7441 11.5202 24.2786 9.71147C23.888 8.0248 23.2031 6.4202 22.2554 4.97135C21.3749 3.6303 20.1855 2.52015 18.787 1.73419C17.2812 0.929532 15.5917 0.53107 13.885 0.578065H13.3185H12.752C10.821 0.728407 8.95585 1.34749 7.31821 2.38162C5.77686 3.3586 4.46383 4.65586 3.4683 6.18528C2.42544 7.79361 1.64494 9.55753 1.15605 11.411C0.642369 13.3656 0.385857 15.3788 0.393002 17.3997C0.381942 19.3243 0.587484 21.244 1.00575 23.1226C1.3998 24.8024 2.07191 26.4045 2.99429 27.8627C3.84774 29.2016 5.01433 30.3127 6.3933 31.0998C7.91457 31.8966 9.61311 32.2944 11.33 32.256H11.9312C12.1466 32.2736 12.3631 32.2736 12.5786 32.256C13.88 33.2966 15.2911 34.1921 16.7869 34.9266C18.5613 35.8053 20.4603 36.4058 22.4172 36.7071L26.14 31.2154C24.7777 31.1788 23.4224 31.0084 22.0935 30.7067ZM16.7869 23.585C16.3858 24.3348 15.8032 24.9721 15.0923 25.4387C14.3813 25.9052 13.5648 26.1861 12.7173 26.2557C12.6253 26.2427 12.5319 26.2427 12.4398 26.2557H12.1508C11.3681 26.2706 10.5963 26.0704 9.9195 25.677C9.24269 25.2835 8.68684 24.7119 8.31248 24.0243C7.42611 22.4828 6.97907 20.0704 6.97137 16.787C6.91024 14.8833 7.15617 12.9821 7.69973 11.1566C8.10614 9.96433 8.82955 8.9052 9.79232 8.09289C10.6341 7.43117 11.6506 7.02939 12.7173 6.93677H13.041H13.3648C14.1026 6.9023 14.8362 7.06649 15.489 7.4122C16.1418 7.75791 16.6898 8.27247 17.0759 8.90218C17.943 10.2549 18.3708 12.5671 18.3708 15.8389C18.3708 19.3613 17.8428 21.9433 16.7869 23.585Z" fill="#FFD800"/>
</g>
<defs>
<clipPath id="clip0_18_21">
<rect width="115" height="39.1234" fill="white"/>
</clipPath>
</defs>
</svg>
