<svg width="34" height="28" viewBox="0 0 34 28" fill="none" xmlns="http://www.w3.org/2000/svg">
<circle cx="14" cy="14" r="14" fill="#143655"/>
<path d="M5.73931 10.995L8.77215 8.29919C9.17721 7.93913 9.79538 7.96728 10.166 8.36266L15.2705 13.8074C15.8905 14.4687 17.5984 14.1597 18.1238 13.421C20.4688 10.1244 25.9201 4.60377 29 1.65221C30.9112 0.0140567 32.3099 -0.164299 33.1643 0.0995389C33.6987 0.264569 33.6276 0.918831 33.1899 1.26714C26.3671 6.69719 20.9244 17.3411 19 22.1522C17.833 24.4862 15.941 23.8569 15.0713 23.2073C15.0231 23.1713 14.9801 23.1294 14.9407 23.084L5.64907 12.3986C5.28946 11.9851 5.3297 11.3591 5.73931 10.995Z" fill="#2DC8FF"/>
</svg>
